<?xml version="1.0" encoding="UTF-8"?>
<svg id="Layer_1" xmlns="http://www.w3.org/2000/svg" viewBox="0 0 289 215" style="color: inherit">
	<path fill="currentcolor" d="M223.58,58.48c-4.06-13.01-11.23-24.66-20.64-34.06C187.86,9.33,167.02,0,144,0c-37.44,0-69.12,24.69-79.64,58.67-15.97,2.96-30.25,10.73-41.27,21.76C8.82,94.69,0,114.4,0,136.17c0,43.54,35.29,78.83,78.83,78.83H210.17c21.77,0,41.48-8.82,55.74-23.09,14.27-14.26,23.09-33.97,23.09-55.74,0-38.97-28.27-71.33-65.42-77.69Zm-20.66,48.15l-14.54,47.58-3.79,12.39c-3.29,10.77-14.69,16.83-25.46,13.53l-59.97-18.33c-8.81-2.69-14.47-10.81-14.44-19.57,.01-1.95,.3-3.93,.9-5.89l18.34-59.97c3.29-10.77,14.69-16.83,25.45-13.54l59.98,18.34c10.76,3.29,16.82,14.69,13.53,25.46Z"/>
	<path fill="currentcolor" d="M161.19,122.46l-2.35,7.67c-2.01,6.58-8.97,10.28-15.55,8.27l-7.67-2.34c-6.57-2.01-10.27-8.98-8.26-15.55l2.34-7.67c2.01-6.58,8.97-10.28,15.55-8.27l7.67,2.34c6.58,2.01,10.28,8.98,8.27,15.55Z"/>
</svg>
